<svg xmlns="http://www.w3.org/2000/svg" viewBox="0 0 48 48" role="img" aria-label="Surfing AI">
  <defs>
    <linearGradient id="ocean" x1="8" y1="7" x2="40" y2="42" gradientUnits="userSpaceOnUse">
      <stop stop-color="#50e8ff"/>
      <stop offset=".52" stop-color="#2f83ff"/>
      <stop offset="1" stop-color="#7568ff"/>
    </linearGradient>
  </defs>
  <rect x="2" y="2" width="44" height="44" rx="14" fill="#071824"/>
  <path d="M9 28.2c5.2-6.7 10.3-8.1 15.4-4.2 4.1 3.1 7.8 3 14.6-.8-2.7 8.2-8.2 12.3-16.4 12.3-5.8 0-10.3-2.4-13.6-7.3Z" fill="url(#ocean)"/>
  <path d="M10 25.7c5.9-7.7 11.7-9.2 17.3-4.4 3.1 2.6 6.5 2.7 10.7.4-4.5.3-7.3-1.2-8.6-4.5-1.7-4.4-5.9-6.1-10.2-3.6-4.1 2.4-7.2 6.4-9.2 12.1Z" fill="#e9fbff"/>
  <circle cx="35.5" cy="12.5" r="3.5" fill="#45e6c1"/>
</svg>
